<?xml version="1.0" encoding="utf-8"?>
<!-- Generator: Adobe Illustrator 27.0.0, SVG Export Plug-In . SVG Version: 6.00 Build 0)  -->
<svg version="1.1" id="Слой_1" xmlns="http://www.w3.org/2000/svg" xmlns:xlink="http://www.w3.org/1999/xlink" x="0px" y="0px"
	 viewBox="0 0 595.28 841.89" style="enable-background:new 0 0 595.28 841.89;" xml:space="preserve">
<style type="text/css">
	.st0{fill:#9297B3;}
	.st1{fill:none;stroke:#9297B3;stroke-width:1.5;stroke-linecap:round;stroke-linejoin:round;}
</style>
<path class="st0" d="M301,431.75h-6c-1.32,0-2.42-0.13-3.35-0.41c-0.34-0.1-0.56-0.43-0.54-0.78c0.25-2.99,3.28-5.34,6.89-5.34
	s6.63,2.34,6.89,5.34c0.03,0.36-0.19,0.68-0.54,0.78C303.42,431.62,302.32,431.75,301,431.75z M292.72,430.06
	c0.66,0.13,1.41,0.19,2.28,0.19h6c0.87,0,1.62-0.06,2.28-0.19c-0.53-1.92-2.72-3.34-5.28-3.34
	C295.44,426.72,293.25,428.14,292.72,430.06z"/>
<path class="st1" d="M301,411h-6c-5,0-7,2-7,7v6c0,3.78,1.14,5.85,3.86,6.62c0.22-2.6,2.89-4.65,6.14-4.65s5.92,2.05,6.14,4.65
	c2.72-0.77,3.86-2.84,3.86-6.62v-6C308,413,306,411,301,411z M298,423.17c-1.98,0-3.58-1.61-3.58-3.59s1.6-3.58,3.58-3.58
	s3.58,1.6,3.58,3.58S299.98,423.17,298,423.17z"/>
<path class="st0" d="M298,423.92c-2.39,0-4.33-1.95-4.33-4.34s1.94-4.33,4.33-4.33s4.33,1.94,4.33,4.33S300.39,423.92,298,423.92z
	 M298,416.75c-1.56,0-2.83,1.27-2.83,2.83c0,1.57,1.27,2.84,2.83,2.84s2.83-1.27,2.83-2.84C300.83,418.02,299.56,416.75,298,416.75z
	"/>
</svg>
